<svg width="37" height="45" viewBox="0 0 37 45" fill="none" xmlns="http://www.w3.org/2000/svg">
<path d="M22.6315 10.0282H29.1527V30.6788C29.1527 32.1732 28.6093 33.4639 27.5224 34.5507C26.4355 35.6376 25.2128 36.1131 23.7184 36.1131H4.15466C2.66021 36.1131 1.36955 35.6376 0.282678 34.5507C-0.804194 33.4639 -1.2797 32.1732 -1.2797 30.6788V10.0282H5.24153C5.24153 8.4658 5.58118 7.03928 6.39633 5.68069C7.14356 4.3221 8.1625 3.30316 9.52109 2.48801C10.8797 1.74078 12.3062 1.33321 13.9365 1.33321C15.4989 1.33321 16.9254 1.74078 18.284 2.48801C19.6426 3.30316 20.6615 4.3221 21.4767 5.68069C22.2239 7.03928 22.6315 8.4658 22.6315 10.0282ZM13.9365 3.50695C12.1024 3.50695 10.54 4.18625 9.3173 5.40898C8.02664 6.69964 7.41528 8.26202 7.41528 10.0282H20.4577C20.4577 8.26202 19.7784 6.69964 18.5557 5.40898C17.2651 4.18625 15.7027 3.50695 13.9365 3.50695ZM26.979 30.6788V12.2019H22.6315V15.4625C22.6315 15.8022 22.4956 16.0739 22.2918 16.2777C22.088 16.4815 21.8163 16.5494 21.5446 16.5494C21.205 16.5494 20.9332 16.4815 20.7295 16.2777C20.5257 16.0739 20.4577 15.8022 20.4577 15.4625V12.2019H7.41528V15.4625C7.41528 15.8022 7.27942 16.0739 7.07563 16.2777C6.87184 16.4815 6.60012 16.5494 6.3284 16.5494C5.98876 16.5494 5.71704 16.4815 5.51325 16.2777C5.30946 16.0739 5.24153 15.8022 5.24153 15.4625V12.2019H0.894044V30.6788C0.894044 31.6298 1.16576 32.377 1.84506 32.9884C2.45642 33.6677 3.20365 33.9394 4.15466 33.9394H23.7184C24.6014 33.9394 25.3487 33.6677 26.028 32.9884C26.6393 32.377 26.979 31.6298 26.979 30.6788Z" fill="#E5DFD9"/>
<ellipse cx="26.801" cy="34.0184" rx="9.96603" ry="10.1951" fill="#141414"/>
<path d="M31.8903 32.608C31.9469 32.608 31.9752 32.6363 32.0318 32.6929C32.0884 32.7495 32.1167 32.7778 32.1167 32.8345V33.7402C32.1167 33.7968 32.0884 33.8534 32.0318 33.91C31.9752 33.9666 31.9469 33.9666 31.8903 33.9666H27.3617V38.4952C27.3617 38.5519 27.3334 38.6085 27.2768 38.6651C27.2201 38.7217 27.1918 38.7217 27.1352 38.7217H26.2295C26.1729 38.7217 26.1163 38.7217 26.0597 38.6651C26.0031 38.6085 26.0031 38.5519 26.0031 38.4952V33.9666H21.4744C21.4178 33.9666 21.3612 33.9666 21.3046 33.91C21.248 33.8534 21.248 33.7968 21.248 33.7402V32.8345C21.248 32.7778 21.248 32.7495 21.3046 32.6929C21.3612 32.6363 21.4178 32.608 21.4744 32.608H26.0031V28.0794C26.0031 28.0228 26.0031 27.9945 26.0597 27.9379C26.1163 27.8813 26.1729 27.853 26.2295 27.853H27.1352C27.1918 27.853 27.2201 27.8813 27.2768 27.9379C27.3334 27.9945 27.3617 28.0228 27.3617 28.0794V32.608H31.8903Z" fill="#E5DFD9"/>
</svg>
