<svg width="14" height="19" viewBox="0 0 14 19" fill="none" xmlns="http://www.w3.org/2000/svg">
<path d="M12.0625 0.25C12.5195 0.25 12.9062 0.425781 13.2578 0.742188C13.5742 1.09375 13.75 1.48047 13.75 1.9375V18.25L7 14.3125L0.25 18.25V1.9375C0.25 1.48047 0.390625 1.09375 0.742188 0.742188C1.05859 0.425781 1.44531 0.25 1.9375 0.25H12.0625ZM12.625 16.2812V1.9375C12.625 1.79688 12.5547 1.65625 12.4492 1.55078C12.3438 1.44531 12.2031 1.375 12.0625 1.375H1.9375C1.76172 1.375 1.62109 1.44531 1.51562 1.55078C1.41016 1.65625 1.375 1.79688 1.375 1.9375V16.2812L7 13.0117L12.625 16.2812Z" fill="#E5DFD9"/>
</svg>
