<svg width="96" height="68" viewBox="0 0 96 68" fill="none" xmlns="http://www.w3.org/2000/svg">
<path d="M82.6476 12.5899C63.4014 10.4564 32.4729 10.6448 14.8655 12.5899C7.77536 13.3732 7.77536 14.429 6.42696 18.6682C2.5142 35.9306 1.53601 46.6285 1.53601 56.5969C1.53601 65.7893 8.90979 66.0173 14.8655 66.6406C24.1583 67.6131 74.6557 66.5654 83.4594 66.0791C92.2631 65.5928 94.464 63.0317 94.464 56.5969C94.464 48.7821 92.1083 24.6443 90.305 18.6682C89.1063 14.6956 88.887 13.2816 82.6476 12.5899Z" stroke="#E5DFD9" stroke-width="1.5"/>
<path d="M36.136 11.0238V4.20551C36.2306 3.26505 37.1003 1.38414 39.8229 1.38414C42.5456 1.38414 52.1126 1.38414 56.5557 1.38414C57.6902 1.30577 59.959 1.76033 59.959 4.20551C59.959 6.65069 59.959 9.76986 59.959 11.0238" stroke="#E5DFD9" stroke-width="1.5"/>
<path d="M41.241 20.3878H55.4213" stroke="#E5DFD9" stroke-width="1.5"/>
<path d="M21.9557 44.5074L21.9557 66.6406" stroke="#E5DFD9" stroke-width="1.5"/>
<path d="M73.5722 44.5074L73.5722 66.6406" stroke="#E5DFD9" stroke-width="1.5"/>
<path d="M63.7467 49.8989C63.7467 58.4178 56.8445 65.3231 48.3311 65.3231C39.8177 65.3231 32.9155 58.4178 32.9155 49.8989C32.9155 41.3799 39.8177 34.4747 48.3311 34.4747C56.8445 34.4747 63.7467 41.3799 63.7467 49.8989Z" stroke="#E5DFD9" stroke-width="1.5"/>
</svg>
