<svg width="92" height="96" viewBox="0 0 92 96" fill="none" xmlns="http://www.w3.org/2000/svg">
<path d="M73.6215 43.3317H17.741C7.75362 43.3317 6.10968 48.0002 5.48148 53.0264C4.34106 62.1507 2.35403 82.8593 1.77512 86.6724C1.19621 90.4854 2.62173 94.6562 5.48148 94.6562C28.9551 94.6562 80.3983 93.8095 84.7319 93.8095C89.0655 93.8095 91.0042 89.9152 90.1576 86.6724C89.2072 78.0233 87.0784 59.1853 86.1661 53.0264C85.2538 46.8674 82.451 43.3317 73.6215 43.3317Z" stroke="#E5DFD9" stroke-width="1.5"/>
<path d="M36.5492 86.6726H56.2214" stroke="#E5DFD9" stroke-width="1.5"/>
<path d="M21.1536 43.1529C30.8471 -12.1635 59.9278 -13.0189 70.7618 43.1529" stroke="#E5DFD9" stroke-width="1.5"/>
<path d="M25.7152 43.3316C33.626 -7.97554 57.3586 -8.76897 66.2001 43.3316" stroke="#E5DFD9" stroke-width="1.5"/>
</svg>
