<svg width="88" height="69" viewBox="0 0 88 69" fill="none" xmlns="http://www.w3.org/2000/svg">
<path d="M86.4001 9.62012H3.29809L3.07349 64.1527C3.07349 66.7228 3.29809 67.8403 5.88099 67.8403H84.2664C86.4001 67.8403 86.3252 65.3819 86.4001 64.1527V9.62012Z" stroke="#E5DFD9" stroke-width="1.5"/>
<path d="M82.5817 12.3018H7.09562L6.8916 61.9149C6.8916 64.2532 7.09562 65.2699 9.44181 65.2699H80.6436C82.5817 65.2699 82.5137 63.0332 82.5817 61.9149V12.3018Z" stroke="#E5DFD9" stroke-width="1.5"/>
<rect x="28.5294" y="53.2808" width="32.19" height="4.75781" stroke="#E5DFD9" stroke-width="1.5"/>
<path d="M38.7848 55.6597H50.5763" stroke="#E5DFD9" stroke-width="1.5"/>
<path d="M8.64103 0.880371C2.95303 1.96037 1.53105 7.72037 3.60103 11.3204C2.98132 5.83037 6.12103 2.32037 9.09103 2.32037L8.64103 0.880371Z" fill="#E5DFD9"/>
</svg>
