<svg width="96" height="70" viewBox="0 0 96 70" fill="none" xmlns="http://www.w3.org/2000/svg">
<path d="M1.72803 38.3198C1.91537 40.1469 3.86377 44.0752 9.0345 44.0752C14.2052 44.0752 63.6457 44.0752 87.7196 44.0752C89.5931 44.1665 93.1151 42.9241 94.464 38.3198" stroke="#E5DFD9" stroke-width="1.5"/>
<path d="M53.376 20.4638L42.816 20.4638" stroke="#E5DFD9" stroke-width="1.5"/>
<path d="M34.7521 13.744C37.8554 2.29381 38.7018 1.45599 41.523 1.45599H56.4755C60.1431 1.45599 59.5789 2.2938 62.4001 13.744" stroke="#E5DFD9" stroke-width="1.5"/>
<path d="M94.464 13.744H1.72803V63.0354C1.72803 66.6407 4.81923 69.232 7.91043 69.232H88.8437C93.34 69.232 94.464 64.5376 94.464 62.1904V13.744Z" stroke="#E5DFD9" stroke-width="1.5"/>
<rect x="26.8979" y="59.6498" width="4.06801" height="14.436" transform="rotate(-180 26.8979 59.6498)" stroke="#E5DFD9" stroke-width="1.5"/>
<rect x="70.6381" y="33.31" width="4.068" height="9.636" stroke="#E5DFD9" stroke-width="1.5"/>
<rect x="22.8301" y="33.31" width="4.068" height="9.636" stroke="#E5DFD9" stroke-width="1.5"/>
<rect x="74.7061" y="59.6498" width="4.06801" height="14.436" transform="rotate(-180 74.7061 59.6498)" stroke="#E5DFD9" stroke-width="1.5"/>
</svg>
