<svg width="27" height="35" viewBox="0 0 27 35" fill="none" xmlns="http://www.w3.org/2000/svg">
<path d="M23.3527 0.188966C24.2202 0.188966 24.9542 0.522605 25.6214 1.12315C26.222 1.79043 26.5556 2.52444 26.5556 3.3919V34.3536L13.7439 26.8801L0.932164 34.3536V3.3919C0.932164 2.52444 1.19908 1.79043 1.86635 1.12315C2.4669 0.522605 3.20091 0.188966 4.1351 0.188966H23.3527ZM24.4203 30.6168V3.3919C24.4203 3.12499 24.2869 2.85808 24.0867 2.65789C23.8865 2.45771 23.6196 2.32425 23.3527 2.32425H4.1351C3.80146 2.32425 3.53455 2.45771 3.33436 2.65789C3.13418 2.85808 3.06745 3.12499 3.06745 3.3919V30.6168L13.7439 24.4111L24.4203 30.6168Z" fill="#0C0C0C"/>
</svg>
