<svg width="18" height="18" viewBox="0 0 18 18" fill="none" xmlns="http://www.w3.org/2000/svg">
<path d="M17.8945 17.1953C17.9648 17.2656 18 17.3711 18 17.4766C18 17.6172 17.9648 17.7227 17.8945 17.793L17.543 18.1094C17.4375 18.2148 17.332 18.25 17.2266 18.25C17.0859 18.25 17.0156 18.2148 16.9453 18.1094L12.4102 13.5742C12.3047 13.5039 12.2695 13.4336 12.2695 13.293V12.9414C11.6016 13.5742 10.8281 14.0312 9.98438 14.3828C9.14062 14.7344 8.22656 14.875 7.3125 14.875C5.97656 14.875 4.74609 14.5586 3.62109 13.8906C2.49609 13.2578 1.61719 12.3789 0.984375 11.2539C0.316406 10.1289 0 8.89844 0 7.5625C0 6.22656 0.316406 5.03125 0.984375 3.90625C1.61719 2.78125 2.49609 1.90234 3.62109 1.23438C4.74609 0.601562 5.97656 0.25 7.3125 0.25C8.64844 0.25 9.84375 0.601562 10.9688 1.23438C12.0938 1.90234 12.9727 2.78125 13.6406 3.90625C14.2734 5.03125 14.625 6.22656 14.625 7.5625C14.625 8.51172 14.4492 9.42578 14.0977 10.2695C13.7461 11.1133 13.2891 11.8867 12.6914 12.5195H13.043C13.1484 12.5195 13.2539 12.5898 13.3594 12.6602L17.8945 17.1953ZM7.3125 13.75C8.4375 13.75 9.45703 13.5039 10.4062 12.9414C11.3555 12.3789 12.0938 11.6406 12.6562 10.6914C13.2188 9.74219 13.5 8.6875 13.5 7.5625C13.5 6.4375 13.2188 5.41797 12.6562 4.46875C12.0938 3.51953 11.3555 2.78125 10.4062 2.21875C9.45703 1.65625 8.4375 1.375 7.3125 1.375C6.1875 1.375 5.13281 1.65625 4.18359 2.21875C3.23438 2.78125 2.49609 3.51953 1.93359 4.46875C1.37109 5.41797 1.125 6.4375 1.125 7.5625C1.125 8.6875 1.37109 9.74219 1.93359 10.6914C2.49609 11.6406 3.23438 12.3789 4.18359 12.9414C5.13281 13.5039 6.1875 13.75 7.3125 13.75Z" fill="#E5DFD9"/>
</svg>
