<svg width="16" height="18" viewBox="0 0 16 18" fill="none" xmlns="http://www.w3.org/2000/svg">
<path d="M12.5 4.75H15.875V15.4375C15.875 16.2109 15.5938 16.8789 15.0312 17.4414C14.4688 18.0039 13.8359 18.25 13.0625 18.25H2.9375C2.16406 18.25 1.49609 18.0039 0.933594 17.4414C0.371094 16.8789 0.125 16.2109 0.125 15.4375V4.75H3.5C3.5 3.94141 3.67578 3.20312 4.09766 2.5C4.48438 1.79688 5.01172 1.26953 5.71484 0.847656C6.41797 0.460938 7.15625 0.25 8 0.25C8.80859 0.25 9.54688 0.460938 10.25 0.847656C10.9531 1.26953 11.4805 1.79688 11.9023 2.5C12.2891 3.20312 12.5 3.94141 12.5 4.75ZM8 1.375C7.05078 1.375 6.24219 1.72656 5.60938 2.35938C4.94141 3.02734 4.625 3.83594 4.625 4.75H11.375C11.375 3.83594 11.0234 3.02734 10.3906 2.35938C9.72266 1.72656 8.91406 1.375 8 1.375ZM14.75 15.4375V5.875H12.5V7.5625C12.5 7.73828 12.4297 7.87891 12.3242 7.98438C12.2188 8.08984 12.0781 8.125 11.9375 8.125C11.7617 8.125 11.6211 8.08984 11.5156 7.98438C11.4102 7.87891 11.375 7.73828 11.375 7.5625V5.875H4.625V7.5625C4.625 7.73828 4.55469 7.87891 4.44922 7.98438C4.34375 8.08984 4.20312 8.125 4.0625 8.125C3.88672 8.125 3.74609 8.08984 3.64062 7.98438C3.53516 7.87891 3.5 7.73828 3.5 7.5625V5.875H1.25V15.4375C1.25 15.9297 1.39062 16.3164 1.74219 16.6328C2.05859 16.9844 2.44531 17.125 2.9375 17.125H13.0625C13.5195 17.125 13.9062 16.9844 14.2578 16.6328C14.5742 16.3164 14.75 15.9297 14.75 15.4375Z" fill="#E5DFD9"/>
</svg>
