<svg width="18" height="18" viewBox="0 0 18 18" fill="none" xmlns="http://www.w3.org/2000/svg">
<path d="M9 1.375C8.29688 1.375 7.62891 1.55078 7.03125 1.90234C6.39844 2.25391 5.94141 2.74609 5.58984 3.34375C5.23828 3.97656 5.0625 4.60938 5.0625 5.3125C5.0625 6.01562 5.23828 6.68359 5.58984 7.28125C5.94141 7.91406 6.39844 8.37109 7.03125 8.72266C7.62891 9.07422 8.29688 9.25 9 9.25C9.70312 9.25 10.3359 9.07422 10.9688 8.72266C11.5664 8.37109 12.0586 7.91406 12.4102 7.28125C12.7617 6.68359 12.9375 6.01562 12.9375 5.3125C12.9375 4.60938 12.7617 3.97656 12.4102 3.34375C12.0586 2.74609 11.5664 2.25391 10.9688 1.90234C10.3359 1.55078 9.70312 1.375 9 1.375ZM13.5 12.625C12.7617 12.625 12.1641 12.6602 11.7422 12.7305C11.4609 12.8008 11.1445 12.8711 10.8281 12.9414C10.5117 13.0469 10.2656 13.1172 10.125 13.1172C9.80859 13.1875 9.42188 13.1875 9 13.1875C8.54297 13.1875 8.15625 13.1875 7.875 13.1172C7.69922 13.1172 7.48828 13.0469 7.20703 12.9414C6.85547 12.8711 6.53906 12.8008 6.25781 12.7305C5.80078 12.6602 5.20312 12.625 4.5 12.625C3.55078 12.625 2.74219 12.9766 2.10938 13.6094C1.44141 14.2773 1.125 15.0859 1.125 16V17.125H16.875V16C16.875 15.0859 16.5234 14.2773 15.8906 13.6094C15.2227 12.9766 14.4141 12.625 13.5 12.625ZM9 0.25C9.91406 0.25 10.7578 0.496094 11.5312 0.953125C12.3047 1.41016 12.9023 2.00781 13.3594 2.78125C13.8164 3.55469 14.0625 4.39844 14.0625 5.3125C14.0625 6.22656 13.8164 7.07031 13.3594 7.84375C12.9023 8.61719 12.3047 9.25 11.5312 9.70703C10.7578 10.1641 9.91406 10.375 9 10.375C8.08594 10.375 7.24219 10.1641 6.46875 9.70703C5.69531 9.25 5.0625 8.61719 4.60547 7.84375C4.14844 7.07031 3.9375 6.22656 3.9375 5.3125C3.9375 4.39844 4.14844 3.55469 4.60547 2.78125C5.0625 2.00781 5.69531 1.41016 6.46875 0.953125C7.24219 0.496094 8.08594 0.25 9 0.25ZM13.5 11.5C14.3086 11.5 15.0469 11.7109 15.75 12.0977C16.4531 12.5195 16.9805 13.0469 17.4023 13.75C17.7891 14.4531 18 15.1914 18 16V17.125C18 17.4414 17.8594 17.7227 17.6484 17.9336C17.4375 18.1445 17.1562 18.25 16.875 18.25H1.125C0.808594 18.25 0.527344 18.1445 0.316406 17.9336C0.105469 17.7227 0 17.4414 0 17.125V16C0 15.1914 0.175781 14.4531 0.597656 13.75C0.984375 13.0469 1.51172 12.5195 2.21484 12.0977C2.91797 11.7109 3.65625 11.5 4.46484 11.5C5.27344 11.5 5.94141 11.5352 6.43359 11.6055C6.71484 11.6758 7.03125 11.7461 7.38281 11.8164C7.62891 11.9219 7.83984 11.9922 8.01562 11.9922C8.26172 12.0625 8.57812 12.0625 9 12.0625C9.38672 12.0625 9.70312 12.0625 9.98438 11.9922C10.125 11.9922 10.3359 11.9219 10.6172 11.8164C10.9688 11.7461 11.2852 11.6758 11.5664 11.6055C12.0586 11.5352 12.6914 11.5 13.5 11.5Z" fill="#E5DFD9"/>
</svg>
