<svg width="86" height="62" viewBox="0 0 86 62" fill="none" xmlns="http://www.w3.org/2000/svg">
<path d="M84.4001 25.8789C59.7116 13.9039 15.0911 20.0044 2.86011 25.8789C4.67211 34.2388 15.5441 59.3184 18.7151 59.3184C25.0571 61.3519 63.3356 61.1259 69.9041 59.3184C72.8033 59.3184 82.3616 35.5944 84.4001 25.8789Z" stroke="#E5DFD9" stroke-width="1.5"/>
<path d="M36.88 25.6597H50.2" stroke="#E5DFD9" stroke-width="1.5"/>
<path d="M42.7102 1.26829C42.7105 1.26819 42.7095 1.27119 42.7065 1.2776C42.7086 1.2716 42.71 1.26839 42.7102 1.26829ZM42.4567 1.60845C42.4546 1.6107 42.4526 1.61295 42.4505 1.61522C42.1455 1.94908 41.6381 2.39226 40.9405 2.92916C39.5542 3.99595 37.5261 5.35007 35.1602 6.81881C30.4331 9.75336 24.4264 13.1033 19.6749 15.4592C15.11 17.7226 11.0593 20.3752 8.01269 22.3704C7.84199 22.4822 7.67444 22.5919 7.51013 22.6994C6.19248 23.5613 5.10459 24.2641 4.26251 24.7387C4.63329 24.3938 5.08607 23.9998 5.61325 23.5633C7.39485 22.0882 9.9469 20.1929 12.8301 18.1861C18.6009 14.1695 25.6296 9.7537 30.3547 7.41088C32.5961 6.29955 34.47 5.33859 36.0406 4.53313C37.8448 3.60791 39.2489 2.88786 40.3504 2.38074C41.3714 1.91068 42.034 1.67228 42.4567 1.60845Z" stroke="#E5DFD9" stroke-width="1.5"/>
</svg>
